KRSPY-parametric-WideBlackMinGrade-minXOPQmaxYOPQmaxXTRA.ufo
<glyph name="comma" format="2">
  <advance width="883"/>
  <unicode hex="002C"/>
  <outline>
    <contour>
      <point x="762" y="-607" type="line"/>
      <point x="762" y="1" type="line"/>
      <point x="762" y="509" type="line"/>
      <point x="760" y="509" type="line"/>
      <point x="760" y="341" type="line"/>
      <point x="760" y="0" type="line"/>
      <point x="760" y="0" type="line"/>
      <point x="760" y="-607" type="line"/>
    </contour>
  </outline>
</glyph>
<glyph name="period" format="2">
  <advance width="230"/>
  <unicode hex="002E"/>
  <outline>
    <contour>
      <point x="28" y="0" type="line" identifier="1m237t4hyw"/>
      <point x="28" y="113" type="line" identifier="v7N4yg5XNk"/>
      <point x="28" y="507" type="line"/>
      <point x="25" y="507" type="line" identifier="zfocDyDTCM"/>
      <point x="25" y="394" type="line"/>
      <point x="25" y="0" type="line" identifier="S4rO5KuHiL"/>
    </contour>
  </outline>
</glyph>
<glyph name="one" format="2">
  <advance width="3563"/>
  <unicode hex="0031"/>
  <outline>
    <contour>
      <point x="104" y="0" type="line"/>
      <point x="3462" y="0" type="line" identifier="CURJAw79Zl"/>
      <point x="3462" y="503" type="line" identifier="0DUCJo8xIi"/>
      <point x="1784" y="503" type="line" identifier="5nmxQXofSG"/>
      <point x="1784" y="1600" type="line" identifier="4rjIeWbSbx"/>
      <point x="101" y="1600" type="line"/>
      <point x="101" y="1097" type="line"/>
      <point x="1782" y="1097" type="line"/>
      <point x="1782" y="503" type="line"/>
      <point x="104" y="503" type="line"/>
    </contour>
  </outline>
</glyph>
<glyph name="two" format="2">
  <advance width="3550"/>
  <unicode hex="0032"/>
  <outline>
    <contour>
      <point x="100" y="0" type="line"/>
      <point x="3451" y="0" type="line" identifier="pzdvPTirLJ"/>
      <point x="3451" y="467" type="line"/>
      <point x="102" y="467" type="line"/>
      <point x="102" y="663" type="line"/>
      <point x="3443" y="762" type="line" identifier="yyb1NCCI5w"/>
      <point x="3443" y="1600" type="line" identifier="5FogYRSgkk"/>
      <point x="103" y="1600" type="line" identifier="svlFvrau4c"/>
      <point x="103" y="930" type="line" identifier="LQ9fBsTy9K"/>
      <point x="105" y="930" type="line"/>
      <point x="105" y="1133" type="line"/>
      <point x="3441" y="1133" type="line"/>
      <point x="3441" y="935" type="line"/>
      <point x="100" y="837" type="line" identifier="teVKnpBcVb"/>
    </contour>
  </outline>
</glyph>
<glyph name="three" format="2">
  <advance width="3698"/>
  <unicode hex="0033"/>
  <outline>
    <contour>
      <point x="147" y="0" type="line" identifier="O9abUc1nmN"/>
      <point x="3496" y="0" type="line" identifier="kMJYMTfXCq"/>
      <point x="3496" y="898" type="line" identifier="su2XmdS8e8"/>
      <point x="2288" y="898" type="line" identifier="JQaOzDQqlF"/>
      <point x="2288" y="794" type="line"/>
      <point x="3472" y="1078" type="line" identifier="S91TzLL02W"/>
      <point x="3472" y="1600" type="line" identifier="xg8x2Ki40p"/>
      <point x="149" y="1600" type="line" identifier="pE1XSRiy68"/>
      <point x="149" y="1023" type="line" identifier="5lNstGRcSF"/>
      <point x="151" y="1023" type="line" identifier="AcE5xKDZfE"/>
      <point x="151" y="1133" type="line" identifier="7ogBYufWpl"/>
      <point x="3470" y="1133" type="line" identifier="RHLvSX2Jv6"/>
      <point x="3470" y="1297" type="line" identifier="YUjTrmoWd9"/>
      <point x="2417" y="1031" type="line"/>
      <point x="2417" y="1031" type="line" identifier="iic1IBkDqp"/>
      <point x="1004" y="1031" type="line" identifier="lRLJEhXMlO"/>
      <point x="1004" y="564" type="line" identifier="8aKgEELrVU"/>
      <point x="3494" y="564" type="line" identifier="Dm8zjmbhNr"/>
      <point x="3494" y="467" type="line" identifier="xv9CFHiFgB"/>
      <point x="149" y="467" type="line" identifier="YajKQV3MHP"/>
      <point x="149" y="572" type="line" identifier="36SchVkwze"/>
      <point x="147" y="572" type="line" identifier="tVui9PiOjA"/>
    </contour>
  </outline>
</glyph>
<glyph name="four" format="2">
  <advance width="3561"/>
  <unicode hex="0034"/>
  <outline>
    <contour>
      <point x="3070" y="0" type="line"/>
      <point x="3072" y="0" type="line"/>
      <point x="3072" y="499" type="line"/>
      <point x="3462" y="499" type="line"/>
      <point x="3462" y="1002" type="line"/>
      <point x="3072" y="1002" type="line"/>
      <point x="3072" y="1600" type="line"/>
      <point x="3070" y="1600" type="line"/>
      <point x="3070" y="1002" type="line"/>
      <point x="101" y="1002" type="line"/>
      <point x="101" y="1075" type="line"/>
      <point x="505" y="1615" type="line"/>
      <point x="503" y="1615" type="line"/>
      <point x="100" y="1075" type="line"/>
      <point x="100" y="499" type="line"/>
      <point x="3070" y="499" type="line"/>
    </contour>
  </outline>
</glyph>
<glyph name="seven" format="2">
  <advance width="3642"/>
  <unicode hex="0037"/>
  <outline>
    <contour>
      <point x="1561" y="0" type="line"/>
      <point x="1564" y="0" type="line" identifier="PiPrv7Kcoy"/>
      <point x="3495" y="1005" type="line" identifier="PkvwNC9Tx1"/>
      <point x="3495" y="1600" type="line" identifier="tgqM27bPOm"/>
      <point x="147" y="1600" type="line" identifier="36ml4xRICt"/>
      <point x="147" y="899" type="line" identifier="aaDZsh5Mah"/>
      <point x="148" y="899" type="line"/>
      <point x="148" y="1097" type="line"/>
      <point x="3494" y="1097" type="line"/>
      <point x="3494" y="1006" type="line"/>
    </contour>
  </outline>
</glyph>
<glyph name="eight" format="2">
  <advance width="3764"/>
  <unicode hex="0038"/>
  <outline>
    <contour>
      <point x="3212" y="567" type="line"/>
      <point x="3561" y="398" type="line"/>
      <point x="3561" y="467" type="line"/>
      <point x="203" y="467" type="line"/>
      <point x="203" y="383" type="line"/>
      <point x="553" y="567" type="line"/>
    </contour>
    <contour>
      <point x="3215" y="799" type="line"/>
      <point x="3215" y="801" type="line"/>
      <point x="3560" y="993" type="line"/>
      <point x="3560" y="1600" type="line"/>
      <point x="204" y="1600" type="line"/>
      <point x="204" y="993" type="line"/>
      <point x="548" y="801" type="line"/>
      <point x="548" y="799" type="line"/>
      <point x="201" y="605" type="line"/>
      <point x="201" y="0" type="line"/>
      <point x="3563" y="0" type="line"/>
      <point x="3563" y="605" type="line"/>
    </contour>
    <contour>
      <point x="553" y="1033" type="line"/>
      <point x="206" y="1209" type="line"/>
      <point x="206" y="1133" type="line"/>
      <point x="3558" y="1133" type="line"/>
      <point x="3557" y="1209" type="line"/>
      <point x="3211" y="1033" type="line"/>
    </contour>
  </outline>
</glyph>
<glyph name="M" format="2">
  <advance width="3727"/>
  <unicode hex="004D"/>
  <outline>
    <contour>
      <point x="1714" y="100" type="line" identifier="0Dn4Xpf57M"/>
      <point x="317" y="1097" type="line"/>
      <point x="157" y="1097" type="line"/>
      <point x="157" y="0" type="line"/>
      <point x="155" y="0" type="line"/>
      <point x="155" y="1600" type="line"/>
      <point x="528" y="1600" type="line"/>
      <point x="1812" y="689" type="line"/>
      <point x="1914" y="689" type="line" identifier="9aKZPM0HPh"/>
      <point x="3198" y="1600" type="line"/>
      <point x="3571" y="1600" type="line"/>
      <point x="3571" y="0" type="line"/>
      <point x="3569" y="0" type="line"/>
      <point x="3569" y="1097" type="line"/>
      <point x="3409" y="1097" type="line"/>
      <point x="2012" y="100" type="line" identifier="spdoeeCFft"/>
    </contour>
  </outline>
</glyph>
<glyph name="P" format="2">
  <advance width="3729"/>
  <unicode hex="0050"/>
  <outline>
    <contour>
      <point x="252" y="0" type="line" identifier="EG08jqU5fb"/>
      <point x="254" y="0" type="line" identifier="osRzIFK2Cu"/>
      <point x="254" y="369" type="line" identifier="hIFVovVRwe"/>
      <point x="3576" y="471" type="line" identifier="Tt6D8zYZmU"/>
      <point x="3576" y="1600" type="line" identifier="6xW04auDFu"/>
      <point x="252" y="1600" type="line" identifier="eETO5GBD5v"/>
    </contour>
    <contour>
      <point x="254" y="866" type="line" identifier="PIBVN1PGv1"/>
      <point x="254" y="1097" type="line" identifier="IZIZQr2gYJ"/>
      <point x="3574" y="1097" type="line" identifier="2c4LCF1E1R"/>
      <point x="3574" y="979" type="line" identifier="1WCnzth1GX"/>
    </contour>
  </outline>
</glyph>
<glyph name="Q" format="2">
  <advance width="3628"/>
  <unicode hex="0051"/>
  <outline>
    <contour>
      <point x="3474" y="1600" type="line" identifier="c9brEFyXXA"/>
      <point x="568" y="1600" type="line" identifier="a4Ql951bxG"/>
      <point x="116" y="1112" type="line" identifier="kbL68Qh2zr"/>
      <point x="116" y="2" type="line" identifier="U6WibAQAUl"/>
      <point x="3474" y="2" type="line" identifier="dfgNHTgBfR"/>
    </contour>
    <contour>
      <point x="3472" y="504" type="line" identifier="jjd5iRDXWT"/>
      <point x="118" y="504" type="line" identifier="YbQKHpAtYn"/>
      <point x="118" y="872" type="line" identifier="vdfGLkskOQ"/>
      <point x="365" y="1097" type="line" identifier="qXlVxK5ShE"/>
      <point x="3472" y="1097" type="line" identifier="g70r2r6DwY"/>
    </contour>
    <contour>
      <point x="1800" y="-263" type="line"/>
      <point x="1802" y="-263" type="line"/>
      <point x="1802" y="2" type="line"/>
      <point x="1800" y="2" type="line"/>
    </contour>
  </outline>
</glyph>
<glyph name="R" format="2">
  <advance width="3628"/>
  <unicode hex="0052"/>
  <outline>
    <contour>
      <point x="157" y="916" type="line"/>
      <point x="155" y="1097" type="line"/>
      <point x="3506" y="1097" type="line"/>
      <point x="3506" y="988" type="line"/>
      <point x="3391" y="916" type="line"/>
    </contour>
    <contour>
      <point x="3512" y="0" type="line"/>
      <point x="3187" y="607" type="line"/>
      <point x="3509" y="877" type="line"/>
      <point x="3508" y="1600" type="line"/>
      <point x="154" y="1600" type="line"/>
      <point x="154" y="0" type="line"/>
      <point x="156" y="0" type="line"/>
      <point x="156" y="414" type="line"/>
      <point x="3293" y="414" type="line"/>
      <point x="3510" y="0" type="line"/>
    </contour>
  </outline>
</glyph>
<glyph name="S" format="2">
  <advance width="3458"/>
  <unicode hex="0053"/>
  <outline>
    <contour>
      <point x="100" y="0" type="line" identifier="09VlJ0BjUX"/>
      <point x="3358" y="0" type="line" identifier="EagWihqFM8"/>
      <point x="3358" y="1032" type="line" identifier="KfNuQA7eZe"/>
      <point x="106" y="1032" type="line" identifier="At364YZFEy"/>
      <point x="106" y="1067" type="line"/>
      <point x="156" y="1133" type="line"/>
      <point x="3356" y="1133" type="line" identifier="3ZUkG35meB"/>
      <point x="3356" y="1083" type="line" identifier="DTOJhFIl15"/>
      <point x="3358" y="1083" type="line" identifier="9KDcrfQ5Ui"/>
      <point x="3358" y="1600" type="line" identifier="SaF9ojRFrW"/>
      <point x="506" y="1600" type="line"/>
      <point x="104" y="1067" type="line"/>
      <point x="104" y="565" type="line" identifier="3sQ8t8BZ6b"/>
      <point x="3356" y="565" type="line" identifier="yiV6OCBLHg"/>
      <point x="3356" y="467" type="line" identifier="9kdl9SYsn8"/>
      <point x="102" y="467" type="line" identifier="yZDWuX8LLe"/>
      <point x="102" y="525" type="line" identifier="jYb9001DTm"/>
      <point x="100" y="525" type="line" identifier="ho4DrS0rdW"/>
    </contour>
  </outline>
</glyph>
<glyph name="U" format="2">
  <advance width="3623"/>
  <unicode hex="0055"/>
  <outline>
    <contour>
      <point x="3465" y="1600" type="line" smooth="yes"/>
      <point x="3465" y="503" type="line"/>
      <point x="315" y="503" type="line" smooth="yes"/>
      <point x="120" y="697" type="line" smooth="yes"/>
      <point x="120" y="1600" type="line"/>
      <point x="118" y="1600" type="line" smooth="yes"/>
      <point x="118" y="497" type="line" smooth="yes"/>
      <point x="582" y="0" type="line" smooth="yes"/>
      <point x="3467" y="0" type="line" smooth="yes"/>
      <point x="3467" y="1600" type="line" smooth="yes"/>
    </contour>
  </outline>
</glyph>
<glyph name="W" format="2">
  <advance width="4803"/>
  <unicode hex="0057"/>
  <outline>
    <contour>
      <point x="161" y="1600" type="line" smooth="yes" identifier="12Pyby1xY2"/>
      <point x="159" y="1600" type="line" smooth="yes" identifier="5LJg4ajoG6"/>
      <point x="159" y="0" type="line" smooth="yes" identifier="ZqTZqAY3uY"/>
      <point x="2010" y="0" type="line" smooth="yes" identifier="rCeQLyjlsN"/>
      <point x="2349" y="187" type="line"/>
      <point x="2352" y="187" type="line"/>
      <point x="2352" y="0" type="line" smooth="yes" identifier="Pkl7cZ37MU"/>
      <point x="4219" y="0" type="line" smooth="yes" identifier="R4lklfJsHA"/>
      <point x="4682" y="497" type="line" smooth="yes" identifier="7g7f8Wu7K4"/>
      <point x="4682" y="1600" type="line" smooth="yes" identifier="RTOJW56qXy"/>
      <point x="4680" y="1600" type="line" identifier="JfSFAkWGZC"/>
      <point x="4680" y="752" type="line" smooth="yes" identifier="WWvGwSpq0g"/>
      <point x="4416" y="503" type="line" smooth="yes" identifier="oee4nqI8Wl"/>
      <point x="2435" y="503" type="line" identifier="Ljn2lpvpG8"/>
      <point x="2435" y="709" type="line"/>
      <point x="2435" y="1484" type="line" smooth="yes"/>
      <point x="2435" y="1484" type="line"/>
      <point x="2433" y="1301" type="line"/>
      <point x="2433" y="710" type="line"/>
      <point x="2043" y="503" type="line" identifier="GlWB6PG54Z"/>
      <point x="161" y="503" type="line" identifier="iqeTRv7HXg"/>
    </contour>
  </outline>
</glyph>
<glyph name="Z" format="2">
  <advance width="3551"/>
  <unicode hex="005A"/>
  <outline>
    <contour>
      <point x="100" y="0" type="line"/>
      <point x="3451" y="0" type="line" identifier="pzdvPTirLJ"/>
      <point x="3451" y="736" type="line" identifier="91SxUS0iwG"/>
      <point x="3449" y="736" type="line"/>
      <point x="3449" y="467" type="line"/>
      <point x="101" y="467" type="line"/>
      <point x="101" y="481" type="line"/>
      <point x="3446" y="962" type="line" identifier="yyb1NCCI5w"/>
      <point x="3446" y="1600" type="line" identifier="5FogYRSgkk"/>
      <point x="103" y="1600" type="line" identifier="svlFvrau4c"/>
      <point x="103" y="880" type="line" identifier="LQ9fBsTy9K"/>
      <point x="105" y="880" type="line"/>
      <point x="105" y="1133" type="line"/>
      <point x="3444" y="1133" type="line"/>
      <point x="3445" y="1199" type="line"/>
      <point x="100" y="718" type="line" identifier="teVKnpBcVb"/>
    </contour>
  </outline>
</glyph>
<glyph name="B.narrow" format="2">
  <advance width="3799"/>
  <outline>
    <contour>
      <point x="247" y="0" type="line" identifier="hvY9r8RmLr"/>
      <point x="3597" y="0" type="line" identifier="9QFpw7nfq7"/>
      <point x="3597" y="564" type="line" identifier="543PerILpr"/>
      <point x="3421" y="682" type="line" identifier="870ZhtaozS"/>
      <point x="3521" y="690" type="line" identifier="eGKH52Jgnk"/>
      <point x="3521" y="1600" type="line" identifier="FaP204GrdB"/>
      <point x="247" y="1600" type="line" identifier="JEev70GAj6"/>
    </contour>
    <contour>
      <point x="248" y="1001" type="line" identifier="By7dfMihfe"/>
      <point x="248" y="1133" type="line" identifier="1p5hKrurVy"/>
      <point x="3519" y="1133" type="line" identifier="Qby8aMtF2X"/>
      <point x="3519" y="1050" type="line" identifier="9lW01gQyU2"/>
    </contour>
    <contour>
      <point x="248" y="467" type="line" identifier="jaMSiLrCua"/>
      <point x="248" y="580" type="line" identifier="XSrxNd2axx"/>
      <point x="3171" y="647" type="line" identifier="VyYlzRh5nq"/>
      <point x="3595" y="380" type="line" identifier="lsRGatjQja"/>
      <point x="3595" y="467" type="line" identifier="xhlDJ3CjD5"/>
    </contour>
  </outline>
</glyph>
<glyph name="C.wide" format="2">
  <advance width="3447"/>
  <outline>
    <contour>
      <point x="78" y="0" type="line" identifier="7lPhzTnk2Z"/>
      <point x="3348" y="0" type="line" identifier="qJVLZGnkwh"/>
      <point x="3348" y="568" type="line" identifier="Y750RHTvDj"/>
      <point x="79" y="568" type="line" identifier="L2LsGnXiZ2"/>
      <point x="80" y="789" type="line" identifier="sUWsr03vF4"/>
      <point x="317" y="1032" type="line" identifier="dbOUe6OhxL"/>
      <point x="3347" y="1032" type="line" identifier="5BjRbcud80"/>
      <point x="3347" y="1600" type="line" identifier="9eJelv8BOw"/>
      <point x="541" y="1600" type="line" identifier="lfZev3ICaC"/>
      <point x="78" y="1095" type="line" identifier="V1EWIdPahq"/>
    </contour>
  </outline>
</glyph>
<glyph name="E.wide" format="2">
  <advance width="3945"/>
  <outline>
    <contour>
      <point x="165" y="0" type="line" identifier="fZynkQ4XHB"/>
      <point x="3840" y="0" type="line" identifier="FAQNpgUPxV"/>
      <point x="3840" y="465" type="line" identifier="5cgTYOhATF"/>
      <point x="166" y="465" type="line" identifier="bWs42DaCgU"/>
      <point x="166" y="568" type="line" identifier="VtD2aADJmn"/>
      <point x="3652" y="568" type="line" identifier="PpbsFdHAnS"/>
      <point x="3652" y="1032" type="line" identifier="8WuC5p8Ax5"/>
      <point x="166" y="1032" type="line" identifier="m39IWn9ntA"/>
      <point x="166" y="1136" type="line" identifier="gQ21I4SHQg"/>
      <point x="3839" y="1136" type="line" identifier="eqNb2VTwYs"/>
      <point x="3839" y="1600" type="line" identifier="qYRmo14Il5"/>
      <point x="165" y="1600" type="line" identifier="HmJIcnLWfC"/>
    </contour>
  </outline>
</glyph>
<glyph name="F.wide" format="2">
  <advance width="3838"/>
  <outline>
    <contour>
      <point x="159" y="0" type="line" identifier="oAgH2tA6DJ"/>
      <point x="161" y="0" type="line" identifier="zCZyMcW5ho"/>
      <point x="161" y="362" type="line" identifier="yHYqkMd7LI"/>
      <point x="3520" y="362" type="line" identifier="NmB7yyQuio"/>
      <point x="3520" y="865" type="line" identifier="wQk2C8zPHh"/>
      <point x="161" y="865" type="line" identifier="4cFHKQfHDt"/>
      <point x="161" y="1097" type="line" identifier="ZvzwyrcwpS"/>
      <point x="3737" y="1097" type="line" identifier="4E754ovOIe"/>
      <point x="3737" y="1600" type="line" identifier="NUrIjqOB7J"/>
      <point x="159" y="1600" type="line" identifier="TBAYuCfUFX"/>
    </contour>
  </outline>
</glyph>
<glyph name="G.wide" format="2">
  <advance width="3650"/>
  <outline>
    <contour>
      <point x="201" y="0" type="line" identifier="7lPhzTnk2Z"/>
      <point x="3551" y="0" type="line" identifier="qJVLZGnkwh"/>
      <point x="3551" y="1026" type="line" identifier="uek1NNj7De"/>
      <point x="3104" y="1026" type="line" identifier="qcvimxjndX"/>
      <point x="3104" y="567" type="line" identifier="EARaY3Su65"/>
      <point x="3549" y="567" type="line" identifier="4m6dHLVhZq"/>
      <point x="3549" y="467" type="line" identifier="Y750RHTvDj"/>
      <point x="203" y="467" type="line" identifier="L2LsGnXiZ2"/>
      <point x="203" y="933" type="line" identifier="sUWsr03vF4"/>
      <point x="409" y="1133" type="line" identifier="dbOUe6OhxL"/>
      <point x="3550" y="1133" type="line" identifier="5BjRbcud80"/>
      <point x="3550" y="1600" type="line" identifier="9eJelv8BOw"/>
      <point x="665" y="1600" type="line" identifier="lfZev3ICaC"/>
      <point x="201" y="1102" type="line" identifier="V1EWIdPahq"/>
    </contour>
  </outline>
</glyph>
<glyph name="K.alt" format="2">
  <advance width="3507"/>
  <outline>
    <contour>
      <point x="80" y="0" type="line" identifier="wmNm7XZsaF"/>
      <point x="80" y="542" type="line" identifier="O22liaP9Qk"/>
      <point x="3004" y="542" type="line" identifier="ELFBWIb1vd"/>
      <point x="3353" y="538" type="line" identifier="DzXo67YEfw"/>
      <point x="3353" y="0" type="line" identifier="aKpYWD78l2"/>
      <point x="3355" y="0" type="line" identifier="ChS7KlqGi6"/>
      <point x="3355" y="1029" type="line" identifier="sWLgkU8Vey"/>
      <point x="2997" y="1033" type="line" identifier="Of0iQc0wBG"/>
      <point x="3098" y="1600" type="line" identifier="dMJ1ywOKQQ"/>
      <point x="3096" y="1600" type="line" identifier="08OWjR2YBJ"/>
      <point x="2996" y="1045" type="line" identifier="g4YLdZEoM3"/>
      <point x="80" y="1045" type="line" identifier="uZuki3Isec"/>
      <point x="80" y="1600" type="line" identifier="nRfcNgqJ4H"/>
      <point x="78" y="1600" type="line" identifier="3XJlWt89ad"/>
      <point x="78" y="0" type="line" identifier="wdbO8kCovY"/>
    </contour>
  </outline>
</glyph>
<glyph name="L.wide" format="2">
  <advance width="3270"/>
  <outline>
    <contour>
      <point x="158" y="0" type="line" identifier="XkJNfQlnnt"/>
      <point x="3172" y="0" type="line" identifier="82EXZEgt46"/>
      <point x="3172" y="503" type="line" identifier="cqpSxwFiM3"/>
      <point x="160" y="503" type="line" identifier="MbxRZRd8vz"/>
      <point x="160" y="1600" type="line" identifier="lYiaKSKITt"/>
      <point x="158" y="1600" type="line" identifier="XFf4mMUzYo"/>
    </contour>
  </outline>
</glyph>
<glyph name="M.narrow" format="2">
  <advance width="4990"/>
  <outline>
    <contour>
      <point x="4777" y="0" type="line" smooth="yes" identifier="12Pyby1xY2"/>
      <point x="4779" y="0" type="line" smooth="yes" identifier="5LJg4ajoG6"/>
      <point x="4779" y="1600" type="line" smooth="yes" identifier="ZqTZqAY3uY"/>
      <point x="719" y="1600" type="line" smooth="yes" identifier="R4lklfJsHA"/>
      <point x="256" y="1105" type="line" smooth="yes" identifier="7g7f8Wu7K4"/>
      <point x="256" y="0" type="line" smooth="yes" identifier="RTOJW56qXy"/>
      <point x="258" y="0" type="line" identifier="JfSFAkWGZC"/>
      <point x="258" y="849" type="line" smooth="yes" identifier="WWvGwSpq0g"/>
      <point x="522" y="1097" type="line" smooth="yes" identifier="oee4nqI8Wl"/>
      <point x="2503" y="1097" type="line" identifier="Ljn2lpvpG8"/>
      <point x="2503" y="99" type="line" smooth="yes"/>
      <point x="2505" y="99" type="line"/>
      <point x="2505" y="1097" type="line" identifier="GlWB6PG54Z"/>
      <point x="4777" y="1097" type="line" identifier="iqeTRv7HXg"/>
    </contour>
  </outline>
</glyph>
<glyph name="N.narrow" format="2">
  <advance width="3727"/>
  <outline>
    <contour>
      <point x="277" y="81" type="line" smooth="yes"/>
      <point x="279" y="81" type="line"/>
      <point x="279" y="873" type="line"/>
      <point x="668" y="1089" type="line"/>
      <point x="3447" y="1089" type="line"/>
      <point x="3447" y="0" type="line" smooth="yes"/>
      <point x="3449" y="0" type="line" smooth="yes"/>
      <point x="3449" y="1600" type="line" smooth="yes"/>
      <point x="646" y="1600" type="line" smooth="yes"/>
      <point x="362" y="1465" type="line"/>
      <point x="279" y="1465" type="line"/>
      <point x="279" y="1600" type="line"/>
      <point x="277" y="1600" type="line"/>
    </contour>
  </outline>
</glyph>
<glyph name="N.wide" format="2">
  <advance width="3246"/>
  <outline>
    <contour>
      <point x="159" y="0" type="line" identifier="CkwYPPvJLv"/>
      <point x="160" y="0" type="line" identifier="oHTJsN7drZ"/>
      <point x="160" y="977" type="line" identifier="wfBbYd10Pm"/>
      <point x="175" y="977" type="line" identifier="MEnBDHq6zU"/>
      <point x="3070" y="0" type="line" identifier="3Nbopwznvn"/>
      <point x="3087" y="0" type="line" identifier="uKfuudIUvA"/>
      <point x="3087" y="1600" type="line" identifier="XRdLFXiM4t"/>
      <point x="3086" y="1600" type="line" identifier="MUSJPjCIXg"/>
      <point x="3086" y="623" type="line" identifier="VILP20cFmq"/>
      <point x="3070" y="623" type="line" identifier="z5b04GDwRN"/>
      <point x="175" y="1600" type="line" identifier="LL64NQ6WBE"/>
      <point x="159" y="1600" type="line" identifier="dzUaaP1sjt"/>
    </contour>
  </outline>
</glyph>
<glyph name="R.alt" format="2">
  <advance width="3509"/>
  <outline>
    <contour>
      <point x="79" y="889" type="line"/>
      <point x="77" y="1040" type="line"/>
      <point x="3428" y="1040" type="line"/>
      <point x="3429" y="889" type="line"/>
    </contour>
    <contour>
      <point x="3434" y="0" type="line"/>
      <point x="3142" y="576" type="line"/>
      <point x="3477" y="582" type="line"/>
      <point x="3430" y="1600" type="line"/>
      <point x="76" y="1600" type="line"/>
      <point x="76" y="0" type="line"/>
      <point x="78" y="0" type="line"/>
      <point x="78" y="414" type="line"/>
      <point x="3227" y="414" type="line"/>
      <point x="3432" y="0" type="line"/>
    </contour>
  </outline>
</glyph>
<glyph name="S.alt" format="2">
  <advance width="3294"/>
  <outline>
    <contour>
      <point x="17" y="0" type="line" identifier="09VlJ0BjUX"/>
      <point x="3269" y="0" type="line" identifier="EagWihqFM8"/>
      <point x="3269" y="981" type="line" identifier="KfNuQA7eZe"/>
      <point x="17" y="981" type="line" identifier="At364YZFEy"/>
      <point x="17" y="1026" type="line"/>
      <point x="61" y="1102" type="line"/>
      <point x="3267" y="1102" type="line" identifier="3ZUkG35meB"/>
      <point x="3267" y="1070" type="line" identifier="DTOJhFIl15"/>
      <point x="3269" y="1070" type="line" identifier="9KDcrfQ5Ui"/>
      <point x="3269" y="1600" type="line" identifier="SaF9ojRFrW"/>
      <point x="399" y="1600" type="line"/>
      <point x="15" y="1026" type="line"/>
      <point x="15" y="619" type="line" identifier="3sQ8t8BZ6b"/>
      <point x="3267" y="619" type="line" identifier="yiV6OCBLHg"/>
      <point x="3267" y="498" type="line" identifier="9kdl9SYsn8"/>
      <point x="19" y="498" type="line" identifier="yZDWuX8LLe"/>
      <point x="19" y="489" type="line" identifier="jYb9001DTm"/>
      <point x="17" y="489" type="line" identifier="ho4DrS0rdW"/>
    </contour>
  </outline>
</glyph>
<glyph name="S.wide" format="2">
  <advance width="3378"/>
  <outline>
    <contour>
      <point x="147" y="0" type="line" identifier="09VlJ0BjUX"/>
      <point x="3231" y="0" type="line" identifier="EagWihqFM8"/>
      <point x="3231" y="1031" type="line" identifier="KfNuQA7eZe"/>
      <point x="153" y="1031" type="line" identifier="At364YZFEy"/>
      <point x="153" y="1076" type="line"/>
      <point x="193" y="1133" type="line"/>
      <point x="3231" y="1133" type="line" identifier="3ZUkG35meB"/>
      <point x="3231" y="1600" type="line" identifier="SaF9ojRFrW"/>
      <point x="545" y="1600" type="line"/>
      <point x="152" y="1076" type="line"/>
      <point x="152" y="569" type="line" identifier="3sQ8t8BZ6b"/>
      <point x="3229" y="569" type="line" identifier="yiV6OCBLHg"/>
      <point x="3229" y="467" type="line" identifier="9kdl9SYsn8"/>
      <point x="147" y="467" type="line" identifier="yZDWuX8LLe"/>
    </contour>
  </outline>
</glyph>
<glyph name="Z.wide" format="2">
  <advance width="3618"/>
  <outline>
    <contour>
      <point x="101" y="0" type="line"/>
      <point x="3517" y="0" type="line" identifier="pzdvPTirLJ"/>
      <point x="3517" y="466" type="line"/>
      <point x="103" y="466" type="line"/>
      <point x="103" y="641" type="line"/>
      <point x="3508" y="937" type="line" identifier="yyb1NCCI5w"/>
      <point x="3508" y="1600" type="line" identifier="5FogYRSgkk"/>
      <point x="102" y="1600" type="line" identifier="svlFvrau4c"/>
      <point x="102" y="1133" type="line"/>
      <point x="3506" y="1133" type="line"/>
      <point x="3506" y="1019" type="line"/>
      <point x="101" y="725" type="line" identifier="teVKnpBcVb"/>
    </contour>
  </outline>
</glyph>
<glyph name="one.narrow" format="2">
  <advance width="1939"/>
  <outline>
    <contour>
      <point x="1781" y="0" type="line" identifier="5nmxQXofSG"/>
      <point x="1781" y="1600" type="line" identifier="4rjIeWbSbx"/>
      <point x="98" y="1600" type="line"/>
      <point x="98" y="1097" type="line"/>
      <point x="1779" y="1097" type="line"/>
      <point x="1779" y="0" type="line"/>
    </contour>
  </outline>
</glyph>
<glyph name="six.wide" format="2">
  <advance width="3505"/>
  <outline>
    <contour>
      <point x="78" y="0" type="line" identifier="uiw6aBUf4P"/>
      <point x="3427" y="0" type="line" identifier="jtYkxiUX6G"/>
      <point x="3427" y="1025" type="line" identifier="2G5L37c87I"/>
      <point x="79" y="1025" type="line"/>
      <point x="79" y="995" type="line"/>
      <point x="275" y="1133" type="line"/>
      <point x="3426" y="1133" type="line"/>
      <point x="3426" y="1600" type="line" identifier="oGvEEuxnYv"/>
      <point x="534" y="1600" type="line" identifier="xR3pEHbMJx"/>
      <point x="78" y="1193" type="line" identifier="KnMArb0tv8"/>
    </contour>
    <contour>
      <point x="3425" y="565" type="line"/>
      <point x="3425" y="467" type="line"/>
      <point x="79" y="467" type="line"/>
      <point x="79" y="565" type="line"/>
    </contour>
  </outline>
</glyph>
<glyph name="three.wide" format="2">
  <advance width="3743"/>
  <outline>
    <contour>
      <point x="147" y="0" type="line" identifier="O9abUc1nmN"/>
      <point x="3496" y="0" type="line" identifier="kMJYMTfXCq"/>
      <point x="3496" y="890" type="line" identifier="su2XmdS8e8"/>
      <point x="2288" y="890" type="line" identifier="JQaOzDQqlF"/>
      <point x="2288" y="786" type="line"/>
      <point x="3488" y="997" type="line" identifier="S91TzLL02W"/>
      <point x="3488" y="1600" type="line" identifier="xg8x2Ki40p"/>
      <point x="149" y="1600" type="line" identifier="pE1XSRiy68"/>
      <point x="149" y="1072" type="line" identifier="7ogBYufWpl"/>
      <point x="3486" y="1072" type="line" identifier="RHLvSX2Jv6"/>
      <point x="3486" y="1157" type="line" identifier="YUjTrmoWd9"/>
      <point x="2417" y="953" type="line"/>
      <point x="2417" y="952" type="line" identifier="iic1IBkDqp"/>
      <point x="760" y="952" type="line" identifier="lRLJEhXMlO"/>
      <point x="760" y="642" type="line" identifier="8aKgEELrVU"/>
      <point x="3494" y="642" type="line" identifier="Dm8zjmbhNr"/>
      <point x="3494" y="527" type="line" identifier="xv9CFHiFgB"/>
      <point x="147" y="527" type="line" identifier="YajKQV3MHP"/>
    </contour>
  </outline>
</glyph>
